# xmcd
#
# Track frame offsets:
#	150
#	16400
#	31380
#	47480
#	76562
#	89525
#	108917
#	125700
#	138022
#	152440
#	163767
#	182747
#	198222
#	215947
#	239812
#	251915
#	265305
#	281410
#
# Disc length: 3944 seconds
#
# Revision: 0
# Processed by: cddbd v1.5.2PL0 Copyright (c) Steve Scherf et al.
# Submitted via: EasyCDDAExtractor 16.0.8.2
#
DISCID=fa0f6612
DTITLE=Συλλογικός δίσκος - Έλληνες ακρίτες 09 Πάτμος κ.ά.
DYEAR=1997
DGENRE=Παραδοσιακή
TTITLE0=Τζιβαέρι [Κάλυμνος]
TTITLE1=Θυμαριώτικος [Κάλυμνος]
TTITLE2=Παριανός [Κάλυμνος]
TTITLE3=Ισσός σούστα [Κάλυμνος]
TTITLE4=Πολίτισσα [Κάλυμνος]
TTITLE5=Ήθελα νά 'χα δυό καρδιές [Αστυπάλαια]
TTITLE6=Κυρά μου Πορταΐτισσα [Αστυπάλαια]
TTITLE7=Μαυρομάτα [Πάτμος]
TTITLE8=Ω σιανέ μου ποταμέ [Πάτμος]
TTITLE9=Σούστα Πάτμου [Πάτμος]
TTITLE10=Το μωρό μου [Κως]
TTITLE11=Στιχοπλάκια της κόρης και του νέου [Κως]
TTITLE12=Ίσσος ανοιχτός [Κως]
TTITLE13=Ο σκοπός της αυγής [Κως]
TTITLE14=Μελαχροινό  [Κως]
TTITLE15=Λέρικος [Λέρος]
TTITLE16=Παστικό [Λέρος]
TTITLE17=Μπαρμπα Θοδωρή [Λέρος]
EXTD=
EXTT0=
EXTT1=
EXTT2=
EXTT3=
EXTT4=
EXTT5=
EXTT6=
EXTT7=
EXTT8=
EXTT9=
EXTT10=
EXTT11=
EXTT12=
EXTT13=
EXTT14=
EXTT15=
EXTT16=
EXTT17=
PLAYORDER=
